Coordinates
version=1
nRows=29
nColumns=24
inDegrees=yes

Units are S.I. units (second, meters, Newtons, ...)
Angles are in degrees.

endheader
time	pelvis_tilt	pelvis_list	pelvis_rotation	pelvis_tx	pelvis_ty	pelvis_tz	hip_flexion_r	hip_adduction_r	hip_rotation_r	knee_angle_r	ankle_angle_r	subtalar_angle_r	mtp_angle_r	hip_flexion_l	hip_adduction_l	hip_rotation_l	knee_angle_l	ankle_angle_l	subtalar_angle_l	mtp_angle_l	lumbar_extension	lumbar_bending	lumbar_rotation
      1.07500000	     17.91528608	      3.70125052	      0.82109286	     -0.47901759	      0.91734363	      0.29693369	      8.04782305	     -2.08150546	     -2.77787651	    -11.80771146	      8.99491492	      3.68162050	     45.23712460	    -34.38525641	      5.23937817	     -6.05240296	    -13.34986145	     32.30361623	     15.54138113	     17.51223529	    -31.94941104	     -1.55080802	     -6.08615241
      1.08000000	     18.01313582	      3.66414636	      0.96439538	     -0.47212201	      0.91646226	      0.29725676	      7.98554815	     -1.94233517	     -2.46172951	    -12.65195347	      9.30066211	      3.80912953	     45.26720096	    -34.70903139	      5.01027356	     -6.06171436	    -13.84758220	     32.30126692	     15.80880902	     17.66454668	    -31.96242848	     -1.40952657	     -6.22315782
      1.08500000	     17.93295099	      3.68629068	      1.14145318	     -0.46512334	      0.91543209	      0.29762384	      8.06782390	     -1.85071967	     -2.11231561	    -13.46963181	      9.65489368	      3.93738772	     45.27712554	    -34.77778532	      4.80896820	     -6.04651489	    -14.48350048	     32.29422459	     16.05172060	     18.02891842	    -31.76841003	     -1.32685570	     -6.48526817
      1.09000000	     17.92135321	      3.79708247	      1.26849245	     -0.45825574	      0.91447808	      0.29781508	      8.16359972	     -1.86066518	     -1.91990749	    -14.46736631	      9.53671910	      4.08262091	     46.69296081	    -34.92935711	      4.74741513	     -5.77173738	    -15.06290875	     31.96305281	     15.88917698	     20.42768275	    -31.68005448	     -1.34256429	     -6.63489739
      1.09500000	     17.92206715	      3.72852474	      1.40231599	     -0.45133670	      0.91366534	      0.29813220	      8.24064164	     -1.66558294	     -1.88877121	    -15.37247352	      8.01964311	      3.70514303	     50.26941581	    -35.01668921	      4.48180307	     -5.84269518	    -15.79870885	     31.81460648	     16.09597695	     21.80004781	    -31.57931226	     -1.18303081	     -6.77162748
      1.10000000	     17.83157256	      3.63997706	      1.54551710	     -0.44460869	      0.91290434	      0.29843081	      8.44980530	     -1.46452974	     -1.86360462	    -16.20688165	      5.87872524	      2.99604669	     52.69133705	    -34.98780457	      4.21392907	     -5.71643034	    -16.53333473	     31.62476550	     16.13732790	     22.96056756	    -31.40815853	     -0.99383605	     -6.85127656
      1.10500000	     17.68222606	      3.57653139	      1.65611223	     -0.43798752	      0.91222193	      0.29881659	      8.77588564	     -1.31129094	     -1.69925105	    -17.10844718	      4.46541458	      2.10874516	     52.57801498	    -34.84348062	      3.99414570	     -5.50264111	    -17.36084482	     31.44422944	     16.12459147	     23.27592366	    -31.18337752	     -0.85786328	     -6.93555173
      1.11000000	     17.51321253	      3.40025763	      1.77782438	     -0.43132784	      0.91170057	      0.29921045	      9.04896208	     -1.04295433	     -1.43823719	    -17.83583644	      4.26801770	      1.52887402	     53.31926525	    -34.61615820	      3.67415718	     -5.33646488	    -18.26366452	     31.04457597	     15.86188179	     25.69581866	    -30.93221659	     -0.60726146	     -6.88234933
      1.11500000	     17.36065203	      3.31268515	      1.80370755	     -0.42483693	      0.91120860	      0.29971254	      9.42289980	     -0.85669863	     -1.26180010	    -18.84235631	      5.15869164	      1.46659891	     53.37644041	    -34.39184976	      3.51517581	     -5.04068682	    -19.18110587	     30.66793719	     15.49804192	     26.50752962	    -30.72289651	     -0.47936970	     -6.80698232
      1.12000000	     17.20337072	      3.15807632	      1.81028755	     -0.41824363	      0.91090640	      0.30019316	      9.83761800	     -0.62111639	     -1.29720220	    -20.02860087	      6.08300979	      1.32660602	     52.49286343	    -34.03384001	      3.27169781	     -5.06196157	    -20.33877053	     30.16205343	     15.30652066	     28.76358151	    -30.49560452	     -0.28929295	     -6.70126607
      1.12500000	     17.05288213	      3.04670987	      1.83811521	     -0.41161440	      0.91071757	      0.30063136	     10.30284955	     -0.44907126	     -1.32113564	    -21.45470212	      6.77458119	      1.04302003	     49.93384516	    -33.66706651	      3.07951058	     -4.95066344	    -21.51943927	     29.56132161	     14.95179939	     30.67556417	    -30.28565024	     -0.12820951	     -6.65368441
      1.13000000	     16.91063791	      2.90375052	      1.84993334	     -0.40507288	      0.91058545	      0.30114696	     10.75277698	     -0.22895404	     -1.20889547	    -22.90185233	      7.51643471	      0.76062585	     47.11816109	    -33.21933750	      2.85893417	     -4.85314834	    -22.85758345	     28.88778343	     14.58324265	     32.73735815	    -30.08506092	      0.04857212	     -6.48568684
      1.13500000	     16.78132785	      2.70806115	      1.97959698	     -0.39845964	      0.91069405	      0.30160964	     11.03968420	      0.06052339	     -1.02579769	    -24.07318247	      8.17951473	      0.62383407	     46.86662462	    -32.69846773	      2.50509642	     -4.75470663	    -24.34851761	     28.31493795	     14.42237741	     33.13179071	    -29.89957554	      0.31776816	     -6.41446003
      1.14000000	     16.90104433	      2.54813129	      2.06181960	     -0.39182419	      0.91122858	      0.30196585	     10.99116436	      0.30486564	     -0.90896019	    -25.14721589	      9.09756509	      1.15992603	     44.51631455	    -32.42391951	      2.22327113	     -4.66001192	    -25.79769514	     27.21229210	     13.86383783	     36.96746334	    -29.98201678	      0.57908008	     -6.32526596
      1.14500000	     16.79111803	      2.36382890	      2.15033609	     -0.38522102	      0.91149879	      0.30240924	     11.16112181	      0.59948214	     -0.70354581	    -26.09386608	      9.58061892	      1.17351079	     43.46009473	    -31.71632084	      1.87631101	     -4.75499317	    -27.62521969	     26.40179644	     13.74176330	     38.12925780	    -29.81834603	      0.83943135	     -6.19925362
      1.15000000	     16.88916147	      2.14730011	      2.33830452	     -0.37855105	      0.91226902	      0.30252537	     10.91499280	      0.89442641	     -0.68543461	    -26.73050445	     10.23308931	      1.16488275	     40.85542347	    -31.22654577	      1.46345100	     -4.64887614	    -29.37072803	     25.17466628	     13.32003451	     41.27445548	    -29.86846806	      1.20590193	     -6.19821496
      1.15500000	     16.87194035	      2.01577756	      2.44613859	     -0.37217779	      0.91290799	      0.30286073	     10.79090189	      1.11787217	     -0.57638329	    -27.30131121	     10.74051852	      0.99499124	     39.41548843	    -30.48078017	      1.16878181	     -4.53989369	    -31.30858127	     23.84235004	     12.87250896	     43.83513858	    -29.83336625	      1.44001452	     -6.07793625
      1.16000000	     16.74239816	      1.83721016	      2.63463916	     -0.36582177	      0.91341199	      0.30328007	     10.69053238	      1.39668562	     -0.52284739	    -27.69627312	     11.22736666	      0.82422409	     38.46455305	    -29.48573400	      0.74308246	     -4.51753172	    -33.43864238	     22.44146929	     12.56642543	     46.27733509	    -29.67848924	      1.72935830	     -6.02436572
      1.16500000	     16.60928709	      1.66352634	      2.81527378	     -0.35958239	      0.91388670	      0.30372887	     10.54466452	      1.65482219	     -0.58080902	    -27.98310266	     11.71178074	      0.84226439	     37.22399112	    -28.36584353	      0.30718419	     -4.50214711	    -35.72267272	     20.99848807	     12.27637254	     48.15052206	    -29.52814630	      1.99815518	     -5.98313777
      1.17000000	     16.48706218	      1.41637699	      3.04174061	     -0.35339675	      0.91432622	      0.30408566	     10.34011082	      1.98830730	     -0.72348780	    -28.16694637	     12.17873088	      0.83163073	     36.16545722	    -27.15914978	     -0.23151806	     -4.48596965	    -38.12431151	     19.39782724	     11.94028044	     50.25762743	    -29.38508390	      2.35878726	     -5.93136753
      1.17500000	     16.14193596	      1.22605435	      3.31923733	     -0.34730587	      0.91443460	      0.30447749	     10.37651074	      2.23166544	     -0.97743673	    -28.32185911	     12.53755726	      0.79441098	     35.83502222	    -25.62173334	     -0.70980777	     -4.28388970	    -40.63931083	     17.85575363	     11.75861211	     50.86455969	    -29.00634302	      2.67575689	     -5.98848497
      1.18000000	     15.85094964	      0.97854434	      3.64649273	     -0.34146880	      0.91461873	      0.30455712	     10.32735130	      2.50532647	     -1.33750306	    -28.42599738	     13.02652358	      0.94006872	     33.47192045	    -24.08380335	     -1.19301820	     -3.94950897	    -43.13266386	     16.04283942	     11.02027350	     54.39772962	    -28.70382972	      3.09134504	     -5.89373920
      1.18500000	     15.53920039	      0.68805519	      3.97640157	     -0.33561871	      0.91479136	      0.30479370	     10.23092259	      2.86945542	     -1.56173857	    -28.35382781	     13.32489415	      0.75120208	     33.13615379	    -22.51059476	     -1.73316017	     -3.57339322	    -45.60818125	     14.77380258	     10.82888563	     54.61439558	    -28.36282508	      3.53807572	     -5.92538417
      1.19000000	     15.12584491	      0.38195808	      4.30791398	     -0.32999640	      0.91477244	      0.30482819	     10.31446000	      3.19368225	     -1.86508107	    -28.38291582	     13.73198755	      0.83506446	     32.48300358	    -20.77347474	     -2.21332347	     -3.12797662	    -48.09381583	     13.94413125	     10.32929953	     54.41452537	    -27.94190568	      3.99773041	     -5.80579498
      1.19500000	     14.78737152	      0.04710125	      4.66354774	     -0.32442217	      0.91491989	      0.30474714	     10.25148108	      3.55467010	     -2.16334178	    -28.26765962	     14.17376197	      0.90734944	     30.74818715	    -19.14209259	     -2.67440003	     -2.59025968	    -50.48792399	     13.48031896	      9.76773087	     51.22913984	    -27.59489428	      4.51651851	     -5.77179500
      1.20000000	     14.44093240	     -0.29340268	      5.00940120	     -0.31902606	      0.91507982	      0.30461988	     10.22031429	      3.91953471	     -2.41724662	    -28.15964638	     14.43337767	      0.84203144	     29.94477371	    -17.50935454	     -3.06982214	     -1.96204442	    -52.80831092	     13.27197959	      8.78494808	     47.58395415	    -27.25169123	      5.01943316	     -5.63455875
      1.20500000	     14.09379084	     -0.60416900	      5.43345838	     -0.31348248	      0.91529511	      0.30426139	     10.15829315	      4.20453646	     -2.80098542	    -28.02997291	     14.76790379	      0.93264344	     29.66789846	    -15.88866290	     -3.39803622	     -1.22865757	    -55.00400868	     13.36152206	      7.72260180	     46.82378519	    -26.87938573	      5.54491459	     -5.69054948
      1.21000000	     13.85058134	     -0.88094550	      5.79241090	     -0.30808944	      0.91580686	      0.30395204	      9.94497101	      4.48428279	     -3.06980055	    -27.80248697	     14.98975728	      0.89854023	     29.26107051	    -14.42945832	     -3.61380766	     -0.54988215	    -57.03016536	     13.55647174	      6.81671750	     46.28698785	    -26.62894617	      6.00101962	     -5.62887497
      1.21500000	     13.69640537	     -1.11372364	      6.07922686	     -0.30249088	      0.91654381	      0.30368154	      9.60872847	      4.71672534	     -3.34820490	    -27.55656630	     15.24540150	      1.05127695	     28.87579896	    -13.13090994	     -3.77359571	     -0.00949362	    -58.86488571	     13.78054414	      5.98568340	     46.05432049	    -26.46782181	      6.40703326	     -5.49138984
